<?xml version="1.0" encoding="UTF-8"?>
<!DOCTYPE svg PUBLIC "-//W3C//DTD SVG 1.1//EN" "http://www.w3.org/Graphics/SVG/1.1/DTD/svg11.dtd">
<svg xmlns="http://www.w3.org/2000/svg" version="1.1" width="512px" height="512px" style="shape-rendering:geometricPrecision; text-rendering:geometricPrecision; image-rendering:optimizeQuality; fill-rule:evenodd; clip-rule:evenodd" xmlns:xlink="http://www.w3.org/1999/xlink">
<g><path style="opacity:0.982" fill="#000000" d="M 194.5,123.5 C 282.833,123.5 371.167,123.5 459.5,123.5C 459.5,211.833 459.5,300.167 459.5,388.5C 371.167,388.5 282.833,388.5 194.5,388.5C 194.5,367.5 194.5,346.5 194.5,325.5C 201.833,325.5 209.167,325.5 216.5,325.5C 216.823,339.412 216.49,353.246 215.5,367C 289.833,367.5 364.166,367.667 438.5,367.5C 438.5,293.167 438.5,218.833 438.5,144.5C 364.166,144.333 289.833,144.5 215.5,145C 216.49,158.754 216.823,172.588 216.5,186.5C 209.167,186.5 201.833,186.5 194.5,186.5C 194.5,165.5 194.5,144.5 194.5,123.5 Z"/></g>
<g><path style="opacity:0.937" fill="#000000" d="M 322.5,200.5 C 342.598,201.098 352.765,211.431 353,231.5C 346.59,232.478 340.09,232.811 333.5,232.5C 333.266,228.231 332.099,224.231 330,220.5C 325.751,217.576 322.084,218.243 319,222.5C 318.035,226.782 318.702,230.782 321,234.5C 331.067,243.898 340.4,253.898 349,264.5C 356.55,277.077 356.217,289.41 348,301.5C 335.02,312.914 321.186,314.081 306.5,305C 299.847,298.22 296.18,290.053 295.5,280.5C 302.431,279.112 309.431,278.446 316.5,278.5C 317.013,282.229 317.846,285.896 319,289.5C 322.736,293.012 326.736,293.345 331,290.5C 333.226,285.314 332.893,280.314 330,275.5C 320.969,266.804 312.303,257.804 304,248.5C 295.085,234.913 295.418,221.579 305,208.5C 310.109,204.026 315.942,201.359 322.5,200.5 Z"/></g>
<g><path style="opacity:0.947" fill="#000000" d="M 51.5,202.5 C 58.8333,202.5 66.1667,202.5 73.5,202.5C 73.3334,230.502 73.5,258.502 74,286.5C 77.3662,291.609 81.8662,292.776 87.5,290C 88.4601,288.581 89.2935,287.081 90,285.5C 90.5,257.835 90.6666,230.169 90.5,202.5C 97.5,202.5 104.5,202.5 111.5,202.5C 111.96,232.542 111.46,262.542 110,292.5C 104.286,304.955 94.4531,311.289 80.5,311.5C 66.2452,311.976 56.7452,305.643 52,292.5C 51.5,262.502 51.3334,232.502 51.5,202.5 Z"/></g>
<g><path style="opacity:0.923" fill="#000000" d="M 124.5,202.5 C 138.218,202.094 151.885,202.594 165.5,204C 173.245,206.744 178.745,211.911 182,219.5C 185.554,231.406 184.887,243.073 180,254.5C 177.833,258 175,260.833 171.5,263C 176.462,278.054 181.129,293.221 185.5,308.5C 177.862,309.497 170.196,309.831 162.5,309.5C 157.815,290.094 152.815,270.761 147.5,251.5C 150.447,250.679 153.447,250.179 156.5,250C 157.931,249.535 159.097,248.701 160,247.5C 162.331,240.882 162.664,234.215 161,227.5C 160.315,224.943 158.815,223.109 156.5,222C 153.183,221.502 149.85,221.335 146.5,221.5C 146.5,250.833 146.5,280.167 146.5,309.5C 138.913,309.814 131.413,309.481 124,308.5C 123.174,273.095 123.341,237.762 124.5,202.5 Z"/></g>
<g><path style="opacity:0.949" fill="#000000" d="M 194.5,202.5 C 207.504,202.333 220.504,202.5 233.5,203C 245.098,204.932 251.598,211.765 253,223.5C 254.532,232.84 252.865,241.506 248,249.5C 246.062,252.106 243.562,253.939 240.5,255C 250.181,260.185 254.848,268.351 254.5,279.5C 254.468,288.816 251.468,296.983 245.5,304C 242.211,306.478 238.544,308.144 234.5,309C 221.171,309.5 207.837,309.667 194.5,309.5C 194.5,273.833 194.5,238.167 194.5,202.5 Z M 215.5,221.5 C 218.976,220.357 222.642,220.19 226.5,221C 228.333,221.5 229.5,222.667 230,224.5C 231.942,230.485 231.942,236.485 230,242.5C 225.909,246.305 221.076,247.472 215.5,246C 216.828,237.735 216.828,229.568 215.5,221.5 Z M 215.5,265.5 C 218.64,264.359 221.973,264.192 225.5,265C 227.492,265.574 228.992,266.741 230,268.5C 232,274.833 232,281.167 230,287.5C 225.909,291.305 221.076,292.472 215.5,291C 216.828,282.402 216.828,273.902 215.5,265.5 Z"/></g>
<g><path style="opacity:0.942" fill="#000000" d="M 264.5,202.5 C 271.833,202.5 279.167,202.5 286.5,202.5C 286.5,238.167 286.5,273.833 286.5,309.5C 279.167,309.5 271.833,309.5 264.5,309.5C 264.5,273.833 264.5,238.167 264.5,202.5 Z"/></g>
</svg>
